<?xml version="1.0" encoding="UTF-8"?>
<svg width="1600" height="520" viewBox="0 0 1600 520" fill="none" xmlns="http://www.w3.org/2000/svg">
  <defs>
    <radialGradient id="halo" cx="50%" cy="50%" r="55%">
      <stop offset="0%" stop-color="#5de4ff" stop-opacity="0.42"/>
      <stop offset="60%" stop-color="#a855f7" stop-opacity="0.20"/>
      <stop offset="100%" stop-color="#5de4ff" stop-opacity="0"/>
    </radialGradient>
    <radialGradient id="spark" cx="50%" cy="50%" r="58%">
      <stop offset="0%" stop-color="#fff4d6"/>
      <stop offset="36%" stop-color="#5de4ff"/>
      <stop offset="100%" stop-color="#a855f7"/>
    </radialGradient>
    <radialGradient id="core" cx="50%" cy="50%" r="58%">
      <stop offset="0%" stop-color="#ffffff"/>
      <stop offset="100%" stop-color="#5de4ff" stop-opacity="0"/>
    </radialGradient>
    <linearGradient id="sparkText" x1="745" y1="0" x2="1115" y2="0" gradientUnits="userSpaceOnUse">
      <stop offset="0%" stop-color="#5de4ff"/>
      <stop offset="100%" stop-color="#a855f7"/>
    </linearGradient>
    <filter id="softGlow" x="0" y="0" width="520" height="520" filterUnits="userSpaceOnUse" color-interpolation-filters="sRGB">
      <feGaussianBlur stdDeviation="12" result="blur"/>
      <feMerge><feMergeNode in="blur"/><feMergeNode in="SourceGraphic"/></feMerge>
    </filter>
  </defs>

  <g transform="translate(88 46) scale(11.5)" filter="url(#softGlow)">
    <line x1="16" y1="2" x2="16" y2="-2.2" stroke="url(#spark)" stroke-width="1" stroke-linecap="round"/>
    <circle cx="16" cy="-3.6" r="2.4" fill="#5de4ff" opacity="0.45"/>
    <circle cx="16" cy="-3.6" r="1.5" fill="url(#spark)"/>
    <circle cx="16" cy="-3.6" r="0.7" fill="#ffffff" opacity="0.92"/>
    <circle cx="16" cy="16" r="15" fill="url(#halo)" opacity="0.72"/>
    <g transform="translate(16 16)">
      <path d="M 0 -14 L 3 -3 L 14 0 L 3 3 L 0 14 L -3 3 L -14 0 L -3 -3 Z" fill="url(#spark)"/>
      <path d="M 0 -6 L 1.4 -1.4 L 6 0 L 1.4 1.4 L 0 6 L -1.4 1.4 L -6 0 L -1.4 -1.4 Z" transform="rotate(45)" fill="#ffffff" opacity="0.52"/>
      <circle cx="0" cy="0" r="3.6" fill="url(#core)" opacity="0.7"/>
      <circle cx="0" cy="0" r="2" fill="#ffffff" opacity="0.96"/>
      <circle cx="6.5" cy="-5.5" r="0.7" fill="#ffffff" opacity="0.80"/>
      <circle cx="-7" cy="6" r="0.6" fill="#ffffff" opacity="0.65"/>
      <circle cx="-5.5" cy="-5" r="0.4" fill="#ffffff" opacity="0.55"/>
    </g>
  </g>

  <g transform="translate(510 118)">
    <text x="0" y="172" fill="#f7fbff" font-family="Inter, Arial, Helvetica, sans-serif" font-size="174" font-weight="800" letter-spacing="-7">Say</text>
    <text x="303" y="172" fill="url(#sparkText)" font-family="Inter, Arial, Helvetica, sans-serif" font-size="174" font-weight="800" letter-spacing="-7">Spark</text>
    <text x="8" y="260" fill="#ffffff" opacity="0.52" font-family="Inter, Arial, Helvetica, sans-serif" font-size="42" font-weight="650" letter-spacing="13">VOICE-FIRST AI TUTOR</text>
  </g>
</svg>